<?xml version="1.0" encoding="utf-8"?>
<!-- Generator: Adobe Illustrator 19.2.0, SVG Export Plug-In . SVG Version: 6.00 Build 0)  -->
<svg version="1.1" id="Layer_1" xmlns="http://www.w3.org/2000/svg" xmlns:xlink="http://www.w3.org/1999/xlink" x="0px" y="0px"
	 viewBox="0 0 215.5 40.1" style="enable-background:new 0 0 215.5 40.1;" xml:space="preserve">
<style type="text/css">
	.st0{fill:#FFFFFF;}
</style>
<g>
	<path class="st0" d="M0,5.3V3.9h1.7V1l1.6-1v3.9h2.5v1.4H3.2v5.3c0,0.5,0.1,0.9,0.3,1.2s0.5,0.4,0.9,0.4c0.4,0,0.8-0.1,1.1-0.3
		L6,13.2c-0.4,0.2-0.9,0.4-1.6,0.4c-0.8,0-1.5-0.3-2-0.8c-0.5-0.5-0.8-1.3-0.8-2.4V5.3H0z"/>
	<path class="st0" d="M16.2,6.8v6.7h-1.6V7.1c0-1.3-0.6-2-1.7-2c-0.7,0-1.4,0.4-2,1.2c-0.6,0.8-0.9,1.8-0.9,3v4.1H8.5V0h1.6v5.7
		c0.3-0.6,0.8-1.1,1.3-1.4c0.6-0.3,1.3-0.5,2-0.5c0.9,0,1.6,0.3,2.1,0.8S16.2,5.8,16.2,6.8z"/>
	<path class="st0" d="M27.5,8.3V9h-7c0.1,0.9,0.3,1.7,0.8,2.3c0.5,0.6,1.1,0.9,1.9,0.9c0.7,0,1.2-0.1,1.6-0.4s0.8-0.8,1-1.4l1.4,0.6
		c-0.4,0.9-1,1.6-1.6,2c-0.6,0.4-1.5,0.6-2.4,0.6c-1.4,0-2.4-0.5-3.2-1.4c-0.8-1-1.1-2.1-1.1-3.5s0.4-2.5,1.1-3.5
		c0.8-1,1.8-1.4,3.2-1.4c1.4,0,2.4,0.4,3.2,1.3C27.1,5.9,27.5,7,27.5,8.3z M23.2,5.2c-0.7,0-1.3,0.2-1.7,0.6s-0.7,1-0.9,1.7h5.3
		c-0.2-0.7-0.4-1.3-0.9-1.7C24.5,5.4,23.9,5.2,23.2,5.2z"/>
	<path class="st0" d="M30.8,12.2c-0.8-1-1.3-2.1-1.3-3.5s0.4-2.5,1.3-3.5c0.8-1,2-1.5,3.3-1.5c1.4,0,2.5,0.5,3.3,1.5
		c0.8,1,1.3,2.1,1.3,3.5s-0.4,2.5-1.3,3.5c-0.8,1-2,1.5-3.3,1.5C32.7,13.6,31.6,13.1,30.8,12.2z M31.9,6.2c-0.5,0.7-0.8,1.5-0.8,2.5
		s0.3,1.8,0.8,2.5c0.5,0.7,1.3,1,2.2,1c0.9,0,1.6-0.3,2.2-1c0.5-0.7,0.8-1.5,0.8-2.5s-0.3-1.8-0.8-2.5c-0.5-0.7-1.3-1-2.2-1
		C33.2,5.2,32.4,5.5,31.9,6.2z"/>
	<path class="st0" d="M49,5.1c0.7,0.9,1.1,2.1,1.1,3.6c0,1.5-0.4,2.7-1.1,3.6c-0.7,0.9-1.8,1.4-3.2,1.4c-0.6,0-1.1-0.1-1.6-0.4
		c-0.5-0.3-0.9-0.6-1.1-0.9v1.2h-1.6V0h1.6v5c0.2-0.3,0.5-0.6,1.1-0.9c0.6-0.3,1.1-0.4,1.7-0.4C47.2,3.7,48.3,4.2,49,5.1z
		 M47.7,11.2c0.5-0.6,0.8-1.5,0.8-2.5c0-1-0.3-1.9-0.8-2.5c-0.5-0.6-1.2-1-2-1c-0.9,0-1.5,0.3-2,1c-0.5,0.6-0.7,1.5-0.7,2.5
		c0,1,0.2,1.9,0.7,2.5c0.5,0.6,1.2,1,2,1C46.5,12.2,47.2,11.8,47.7,11.2z"/>
	<path class="st0" d="M59.7,7.3v6.1h-1.3l-0.3-1.3c-0.7,1-1.7,1.5-3,1.5c-0.9,0-1.6-0.2-2.1-0.7c-0.6-0.5-0.8-1.2-0.8-2.2
		c0-1,0.4-1.8,1.2-2.3c0.8-0.5,1.8-0.8,3.2-0.8h1.6V7.1c0-1.3-0.7-2-2.1-2c-0.5,0-0.9,0.1-1.3,0.4c-0.4,0.3-0.6,0.6-0.7,1.1
		l-1.4-0.3c0.1-0.8,0.5-1.5,1.1-1.9C54.3,4,55.1,3.7,56,3.7c1.1,0,2,0.3,2.7,0.9S59.7,6.1,59.7,7.3z M53.8,10.7
		c0,0.5,0.1,0.8,0.4,1.1c0.3,0.3,0.7,0.4,1.2,0.4c0.7,0,1.3-0.2,1.9-0.7c0.5-0.5,0.8-1.2,0.8-2.2V9h-1.7c-0.8,0-1.4,0.1-1.9,0.4
		C54,9.7,53.8,10.2,53.8,10.7z"/>
	<path class="st0" d="M62.7,0h1.6v13.5h-1.6V0z"/>
	<path class="st0" d="M68,12.2c-0.7-0.9-1.1-2.1-1.1-3.6c0-1.5,0.4-2.7,1.1-3.6c0.7-0.9,1.8-1.4,3.2-1.4c0.6,0,1.1,0.1,1.7,0.4
		c0.6,0.3,0.9,0.6,1.1,0.9V0h1.6v13.5h-1.6v-1.2c-0.2,0.4-0.6,0.7-1.1,0.9c-0.5,0.3-1.1,0.4-1.6,0.4C69.8,13.6,68.7,13.2,68,12.2z
		 M69.3,6.1c-0.5,0.6-0.8,1.5-0.8,2.5c0,1,0.3,1.9,0.8,2.5c0.5,0.6,1.2,1,2,1c0.9,0,1.5-0.3,2-1c0.5-0.6,0.7-1.5,0.7-2.5
		c0-1-0.2-1.9-0.7-2.5c-0.5-0.6-1.2-1-2-1C70.5,5.2,69.8,5.5,69.3,6.1z"/>
	<path class="st0" d="M78.2,5.3V3.9h1.4V3.2c0-1.1,0.3-1.9,0.8-2.4C80.9,0.3,81.7,0,82.6,0c0.6,0,1,0.1,1.4,0.3l-0.3,1.4
		c-0.4-0.2-0.7-0.3-1.1-0.3c-0.5,0-0.9,0.1-1.1,0.4c-0.2,0.3-0.4,0.7-0.4,1.4v0.6h2.2v1.4h-2.2v8.1h-1.6V5.3H78.2z"/>
	<path class="st0" d="M86.5,12.2c-0.8-1-1.3-2.1-1.3-3.5s0.4-2.5,1.3-3.5c0.8-1,2-1.5,3.3-1.5c1.4,0,2.5,0.5,3.3,1.5
		c0.8,1,1.3,2.1,1.3,3.5s-0.4,2.5-1.3,3.5c-0.8,1-2,1.5-3.3,1.5C88.4,13.6,87.3,13.1,86.5,12.2z M87.7,6.2c-0.5,0.7-0.8,1.5-0.8,2.5
		s0.3,1.8,0.8,2.5c0.5,0.7,1.3,1,2.2,1c0.9,0,1.6-0.3,2.2-1c0.5-0.7,0.8-1.5,0.8-2.5S92.5,6.9,92,6.2c-0.5-0.7-1.3-1-2.2-1
		C88.9,5.2,88.2,5.5,87.7,6.2z"/>
	<path class="st0" d="M96.1,3.9h1.8l1.9,3l1.9-3h1.8l-2.8,4.5l3.1,5.1H102l-2.2-3.6l-2.2,3.6h-1.8l3.1-5.1L96.1,3.9z"/>
	<path class="st0" d="M105.9,12.3c0-0.3,0.1-0.6,0.3-0.8c0.2-0.2,0.5-0.4,0.9-0.4c0.3,0,0.6,0.1,0.8,0.4s0.4,0.5,0.4,0.8
		c0,0.3-0.1,0.6-0.4,0.9c-0.2,0.2-0.5,0.3-0.8,0.3c-0.3,0-0.6-0.1-0.9-0.3C106,13,105.9,12.7,105.9,12.3z"/>
	<path class="st0" d="M118,10.4l1.4,0.6c-0.8,1.8-2.1,2.6-4,2.6c-1.4,0-2.5-0.5-3.2-1.4c-0.8-1-1.1-2.1-1.1-3.5s0.4-2.5,1.1-3.5
		c0.8-1,1.8-1.4,3.2-1.4c1.9,0,3.2,0.9,4,2.6L118,6.9c-0.5-1.2-1.4-1.8-2.6-1.8c-0.9,0-1.6,0.3-2,1s-0.7,1.5-0.7,2.5
		s0.2,1.9,0.7,2.5s1.1,1,2,1C116.6,12.2,117.5,11.6,118,10.4z"/>
	<path class="st0" d="M122.5,12.2c-0.8-1-1.3-2.1-1.3-3.5s0.4-2.5,1.3-3.5c0.8-1,2-1.5,3.3-1.5c1.4,0,2.5,0.5,3.3,1.5
		s1.3,2.1,1.3,3.5s-0.4,2.5-1.3,3.5c-0.8,1-2,1.5-3.3,1.5C124.4,13.6,123.3,13.1,122.5,12.2z M123.6,6.2c-0.5,0.7-0.8,1.5-0.8,2.5
		s0.3,1.8,0.8,2.5c0.5,0.7,1.3,1,2.2,1c0.9,0,1.6-0.3,2.2-1c0.5-0.7,0.8-1.5,0.8-2.5s-0.3-1.8-0.8-2.5c-0.5-0.7-1.3-1-2.2-1
		C124.9,5.2,124.2,5.5,123.6,6.2z"/>
	<path class="st0" d="M146.1,6.7v6.7h-1.6V7c0-1.3-0.5-1.9-1.5-1.9c-0.7,0-1.3,0.4-1.8,1.2c-0.5,0.8-0.7,1.8-0.7,3.2v3.9h-1.6V7
		c0-1.3-0.5-1.9-1.5-1.9c-0.7,0-1.3,0.4-1.8,1.2c-0.5,0.8-0.7,1.8-0.7,3.2v3.9h-1.6V3.9h1.6v1.8c0.6-1.3,1.6-1.9,3-1.9
		c0.7,0,1.2,0.2,1.7,0.5c0.4,0.3,0.8,0.8,0.9,1.5c0.7-1.3,1.7-2,3.1-2c0.9,0,1.5,0.3,2,0.8S146.1,5.8,146.1,6.7z"/>
	<path class="st0" d="M0,28.1v-1.4h1.7v-2.9l1.6-1v3.9h2.5v1.4H3.2v5.3c0,0.5,0.1,0.9,0.3,1.2S4.1,35,4.5,35c0.4,0,0.8-0.1,1.1-0.3
		L6,36c-0.4,0.2-0.9,0.4-1.6,0.4c-0.8,0-1.5-0.3-2-0.8c-0.5-0.5-0.8-1.3-0.8-2.4v-5.1H0z"/>
	<path class="st0" d="M16.2,29.6v6.7h-1.6v-6.3c0-1.3-0.6-2-1.7-2c-0.7,0-1.4,0.4-2,1.2c-0.6,0.8-0.9,1.8-0.9,3v4.1H8.5V22.8h1.6
		v5.7c0.3-0.6,0.8-1.1,1.3-1.4c0.6-0.3,1.3-0.5,2-0.5c0.9,0,1.6,0.3,2.1,0.8S16.2,28.6,16.2,29.6z"/>
	<path class="st0" d="M27.5,31.1v0.7h-7c0.1,0.9,0.3,1.7,0.8,2.3c0.5,0.6,1.1,0.9,1.9,0.9c0.7,0,1.2-0.1,1.6-0.4s0.8-0.8,1-1.4
		l1.4,0.6c-0.4,0.9-1,1.6-1.6,2c-0.6,0.4-1.5,0.6-2.4,0.6c-1.4,0-2.4-0.5-3.2-1.4c-0.8-1-1.1-2.1-1.1-3.5s0.4-2.5,1.1-3.5
		c0.8-1,1.8-1.4,3.2-1.4c1.4,0,2.4,0.4,3.2,1.3C27.1,28.7,27.5,29.8,27.5,31.1z M23.2,28c-0.7,0-1.3,0.2-1.7,0.6s-0.7,1-0.9,1.7h5.3
		c-0.2-0.7-0.4-1.3-0.9-1.7C24.5,28.2,23.9,28,23.2,28z"/>
	<path class="st0" d="M32.9,26.5c1.2,0,2.1,0.5,2.8,1.5l-1.1,0.9c-0.6-0.6-1.2-1-1.7-1c-0.3,0-0.6,0.1-0.8,0.3
		c-0.2,0.2-0.3,0.5-0.3,0.9c0,0.3,0.2,0.6,0.5,0.8c0.3,0.2,0.7,0.4,1.1,0.6s0.9,0.4,1.3,0.6c0.4,0.2,0.8,0.5,1.1,0.9
		c0.3,0.4,0.5,0.8,0.5,1.3c0,0.9-0.3,1.7-0.9,2.2c-0.6,0.5-1.3,0.8-2.3,0.8c-0.9,0-1.7-0.2-2.3-0.7c-0.6-0.5-1-1.1-1.3-1.8l1.3-0.7
		C31.3,34.3,32,35,33,35c1,0,1.5-0.5,1.5-1.5c0-0.3-0.2-0.6-0.5-0.8c-0.3-0.2-0.7-0.4-1.1-0.6c-0.4-0.2-0.9-0.3-1.3-0.5
		c-0.4-0.2-0.8-0.5-1.1-0.9c-0.3-0.4-0.5-0.9-0.5-1.5c0-0.8,0.3-1.4,0.8-1.9C31.4,26.8,32.1,26.5,32.9,26.5z"/>
	<path class="st0" d="M46.7,29.6v6.7h-1.6v-6.3c0-1.3-0.6-2-1.7-2c-0.7,0-1.4,0.4-2,1.2c-0.6,0.8-0.9,1.8-0.9,3v4.1H39V22.8h1.6v5.7
		c0.3-0.6,0.8-1.1,1.3-1.4c0.6-0.3,1.3-0.5,2-0.5c0.9,0,1.6,0.3,2.1,0.8S46.7,28.6,46.7,29.6z"/>
	<path class="st0" d="M58,31.1v0.7h-7c0.1,0.9,0.3,1.7,0.8,2.3c0.5,0.6,1.1,0.9,1.9,0.9c0.7,0,1.2-0.1,1.6-0.4s0.8-0.8,1-1.4
		l1.4,0.6c-0.4,0.9-1,1.6-1.6,2c-0.6,0.4-1.5,0.6-2.4,0.6c-1.4,0-2.4-0.5-3.2-1.4c-0.8-1-1.1-2.1-1.1-3.5s0.4-2.5,1.1-3.5
		c0.8-1,1.8-1.4,3.2-1.4c1.4,0,2.4,0.4,3.2,1.3C57.6,28.7,58,29.8,58,31.1z M53.7,28c-0.7,0-1.3,0.2-1.7,0.6s-0.7,1-0.9,1.7h5.3
		c-0.2-0.7-0.4-1.3-0.9-1.7C55,28.2,54.4,28,53.7,28z"/>
	<path class="st0" d="M66.4,26.8l-0.3,1.4C65.8,28.1,65.4,28,65,28c-0.7,0-1.3,0.4-1.9,1.2s-0.8,2-0.8,3.4v3.6h-1.6v-9.6h1.6v1.6
		c0.3-0.5,0.7-1,1.2-1.3c0.5-0.3,1.1-0.5,1.6-0.5C65.7,26.5,66.1,26.6,66.4,26.8z"/>
	<path class="st0" d="M76.1,27.9c0.7,0.9,1.1,2.1,1.1,3.6c0,1.5-0.4,2.7-1.1,3.6c-0.7,0.9-1.8,1.4-3.2,1.4c-0.6,0-1.1-0.1-1.7-0.4
		c-0.6-0.3-0.9-0.6-1.1-0.9v5h-1.6V26.7h1.6v1.2c0.2-0.4,0.6-0.7,1.1-0.9c0.5-0.3,1.1-0.4,1.6-0.4C74.3,26.5,75.4,27,76.1,27.9z
		 M74.8,34c0.5-0.6,0.8-1.5,0.8-2.5c0-1-0.3-1.9-0.8-2.5c-0.5-0.6-1.2-1-2-1c-0.9,0-1.5,0.3-2,1c-0.5,0.6-0.7,1.5-0.7,2.5
		c0,1,0.2,1.9,0.7,2.5c0.5,0.6,1.2,1,2,1C73.6,35,74.3,34.6,74.8,34z"/>
	<path class="st0" d="M86.8,30.1v6.1h-1.3l-0.3-1.3c-0.7,1-1.7,1.5-3,1.5c-0.9,0-1.6-0.2-2.1-0.7c-0.6-0.5-0.8-1.2-0.8-2.2
		c0-1,0.4-1.8,1.2-2.3c0.8-0.5,1.8-0.8,3.2-0.8h1.6v-0.4c0-1.3-0.7-2-2.1-2c-0.5,0-0.9,0.1-1.3,0.4c-0.4,0.3-0.6,0.6-0.7,1.1
		l-1.4-0.3c0.1-0.8,0.5-1.5,1.1-1.9c0.6-0.5,1.4-0.7,2.3-0.7c1.1,0,2,0.3,2.7,0.9S86.8,28.9,86.8,30.1z M80.9,33.5
		c0,0.5,0.1,0.8,0.4,1.1c0.3,0.3,0.7,0.4,1.2,0.4c0.7,0,1.3-0.2,1.9-0.7c0.5-0.5,0.8-1.2,0.8-2.2v-0.2h-1.7c-0.8,0-1.4,0.1-1.9,0.4
		C81.2,32.5,80.9,33,80.9,33.5z"/>
	<path class="st0" d="M92.6,26.5c1.2,0,2.1,0.5,2.8,1.5l-1.1,0.9c-0.6-0.6-1.2-1-1.7-1c-0.3,0-0.6,0.1-0.8,0.3
		c-0.2,0.2-0.3,0.5-0.3,0.9c0,0.3,0.2,0.6,0.5,0.8c0.3,0.2,0.7,0.4,1.1,0.6s0.9,0.4,1.3,0.6c0.4,0.2,0.8,0.5,1.1,0.9
		c0.3,0.4,0.5,0.8,0.5,1.3c0,0.9-0.3,1.7-0.9,2.2c-0.6,0.5-1.3,0.8-2.3,0.8c-0.9,0-1.7-0.2-2.3-0.7c-0.6-0.5-1-1.1-1.3-1.8l1.3-0.7
		c0.5,1.3,1.2,1.9,2.2,1.9c1,0,1.5-0.5,1.5-1.5c0-0.3-0.2-0.6-0.5-0.8c-0.3-0.2-0.7-0.4-1.1-0.6c-0.4-0.2-0.9-0.3-1.3-0.5
		c-0.4-0.2-0.8-0.5-1.1-0.9c-0.3-0.4-0.5-0.9-0.5-1.5c0-0.8,0.3-1.4,0.8-1.9C91,26.8,91.7,26.5,92.6,26.5z"/>
	<path class="st0" d="M104.8,33.2l1.4,0.6c-0.8,1.8-2.1,2.6-4,2.6c-1.4,0-2.5-0.5-3.2-1.4c-0.8-1-1.1-2.1-1.1-3.5s0.4-2.5,1.1-3.5
		c0.8-1,1.8-1.4,3.2-1.4c1.9,0,3.2,0.9,4,2.6l-1.4,0.6c-0.5-1.2-1.4-1.8-2.6-1.8c-0.9,0-1.6,0.3-2,1s-0.7,1.5-0.7,2.5
		s0.2,1.9,0.7,2.5s1.1,1,2,1C103.5,35,104.3,34.4,104.8,33.2z"/>
	<path class="st0" d="M109.4,35c-0.8-1-1.3-2.1-1.3-3.5s0.4-2.5,1.3-3.5c0.8-1,2-1.5,3.3-1.5c1.4,0,2.5,0.5,3.3,1.5s1.3,2.1,1.3,3.5
		S116.9,34,116,35c-0.8,1-2,1.5-3.3,1.5C111.3,36.4,110.2,35.9,109.4,35z M110.5,29c-0.5,0.7-0.8,1.5-0.8,2.5s0.3,1.8,0.8,2.5
		c0.5,0.7,1.3,1,2.2,1c0.9,0,1.6-0.3,2.2-1c0.5-0.7,0.8-1.5,0.8-2.5s-0.3-1.8-0.8-2.5c-0.5-0.7-1.3-1-2.2-1
		C111.8,28,111,28.3,110.5,29z"/>
	<path class="st0" d="M133,29.5v6.7h-1.6v-6.4c0-1.3-0.5-1.9-1.5-1.9c-0.7,0-1.3,0.4-1.8,1.2c-0.5,0.8-0.7,1.8-0.7,3.2v3.9h-1.6
		v-6.4c0-1.3-0.5-1.9-1.5-1.9c-0.7,0-1.3,0.4-1.8,1.2c-0.5,0.8-0.7,1.8-0.7,3.2v3.9h-1.6v-9.6h1.6v1.8c0.6-1.3,1.6-1.9,3-1.9
		c0.7,0,1.2,0.2,1.7,0.5c0.4,0.3,0.8,0.8,0.9,1.5c0.7-1.3,1.7-2,3.1-2c0.9,0,1.5,0.3,2,0.8S133,28.6,133,29.5z"/>
	<path class="st0" d="M144,27.9c0.7,0.9,1.1,2.1,1.1,3.6c0,1.5-0.4,2.7-1.1,3.6c-0.7,0.9-1.8,1.4-3.2,1.4c-0.6,0-1.1-0.1-1.7-0.4
		c-0.6-0.3-0.9-0.6-1.1-0.9v5h-1.6V26.7h1.6v1.2c0.2-0.4,0.6-0.7,1.1-0.9c0.5-0.3,1.1-0.4,1.6-0.4C142.2,26.5,143.2,27,144,27.9z
		 M142.7,34c0.5-0.6,0.8-1.5,0.8-2.5c0-1-0.3-1.9-0.8-2.5c-0.5-0.6-1.2-1-2-1c-0.9,0-1.5,0.3-2,1c-0.5,0.6-0.7,1.5-0.7,2.5
		c0,1,0.2,1.9,0.7,2.5c0.5,0.6,1.2,1,2,1C141.5,35,142.2,34.6,142.7,34z"/>
	<path class="st0" d="M154.7,30.1v6.1h-1.3l-0.3-1.3c-0.7,1-1.7,1.5-3,1.5c-0.9,0-1.6-0.2-2.1-0.7c-0.6-0.5-0.8-1.2-0.8-2.2
		c0-1,0.4-1.8,1.2-2.3c0.8-0.5,1.8-0.8,3.2-0.8h1.6v-0.4c0-1.3-0.7-2-2.1-2c-0.5,0-0.9,0.1-1.3,0.4c-0.4,0.3-0.6,0.6-0.7,1.1
		l-1.4-0.3c0.1-0.8,0.5-1.5,1.1-1.9c0.6-0.5,1.4-0.7,2.3-0.7c1.1,0,2,0.3,2.7,0.9S154.7,28.9,154.7,30.1z M148.8,33.5
		c0,0.5,0.1,0.8,0.4,1.1s0.7,0.4,1.2,0.4c0.7,0,1.3-0.2,1.9-0.7c0.5-0.5,0.8-1.2,0.8-2.2v-0.2h-1.7c-0.8,0-1.4,0.1-1.9,0.4
		S148.8,33,148.8,33.5z"/>
	<path class="st0" d="M160.4,26.5c1.2,0,2.1,0.5,2.8,1.5l-1.1,0.9c-0.6-0.6-1.2-1-1.7-1c-0.3,0-0.6,0.1-0.8,0.3
		c-0.2,0.2-0.3,0.5-0.3,0.9c0,0.3,0.2,0.6,0.5,0.8c0.3,0.2,0.7,0.4,1.1,0.6s0.9,0.4,1.3,0.6c0.4,0.2,0.8,0.5,1.1,0.9
		c0.3,0.4,0.5,0.8,0.5,1.3c0,0.9-0.3,1.7-0.9,2.2c-0.6,0.5-1.3,0.8-2.3,0.8c-0.9,0-1.6-0.2-2.3-0.7c-0.6-0.5-1-1.1-1.3-1.8l1.3-0.7
		c0.5,1.3,1.2,1.9,2.2,1.9c1,0,1.5-0.5,1.5-1.5c0-0.3-0.2-0.6-0.5-0.8c-0.3-0.2-0.7-0.4-1.1-0.6s-0.9-0.3-1.3-0.5
		c-0.4-0.2-0.8-0.5-1.1-0.9c-0.3-0.4-0.5-0.9-0.5-1.5c0-0.8,0.3-1.4,0.8-1.9C158.9,26.8,159.6,26.5,160.4,26.5z"/>
	<path class="st0" d="M169.2,26.5c1.2,0,2.1,0.5,2.8,1.5l-1.1,0.9c-0.6-0.6-1.2-1-1.7-1c-0.3,0-0.6,0.1-0.8,0.3
		c-0.2,0.2-0.3,0.5-0.3,0.9c0,0.3,0.2,0.6,0.5,0.8c0.3,0.2,0.7,0.4,1.1,0.6s0.9,0.4,1.3,0.6c0.4,0.2,0.8,0.5,1.1,0.9
		c0.3,0.4,0.5,0.8,0.5,1.3c0,0.9-0.3,1.7-0.9,2.2c-0.6,0.5-1.3,0.8-2.3,0.8c-0.9,0-1.6-0.2-2.3-0.7c-0.6-0.5-1-1.1-1.3-1.8l1.3-0.7
		c0.5,1.3,1.2,1.9,2.2,1.9c1,0,1.5-0.5,1.5-1.5c0-0.3-0.2-0.6-0.5-0.8c-0.3-0.2-0.7-0.4-1.1-0.6s-0.9-0.3-1.3-0.5
		c-0.4-0.2-0.8-0.5-1.1-0.9c-0.3-0.4-0.5-0.9-0.5-1.5c0-0.8,0.3-1.4,0.8-1.9C167.7,26.8,168.3,26.5,169.2,26.5z"/>
	<path class="st0" d="M175.2,35.1c0-0.3,0.1-0.6,0.3-0.8c0.2-0.2,0.5-0.4,0.9-0.4c0.3,0,0.6,0.1,0.8,0.4s0.4,0.5,0.4,0.8
		c0,0.3-0.1,0.6-0.4,0.9c-0.2,0.2-0.5,0.3-0.8,0.3c-0.3,0-0.6-0.1-0.9-0.3C175.3,35.8,175.2,35.5,175.2,35.1z"/>
	<path class="st0" d="M187.3,33.2l1.4,0.6c-0.8,1.8-2.1,2.6-4,2.6c-1.4,0-2.5-0.5-3.2-1.4c-0.8-1-1.1-2.1-1.1-3.5s0.4-2.5,1.1-3.5
		c0.8-1,1.8-1.4,3.2-1.4c1.9,0,3.2,0.9,4,2.6l-1.4,0.6c-0.5-1.2-1.4-1.8-2.6-1.8c-0.9,0-1.6,0.3-2,1s-0.7,1.5-0.7,2.5
		s0.2,1.9,0.7,2.5s1.1,1,2,1C185.9,35,186.8,34.4,187.3,33.2z"/>
	<path class="st0" d="M191.8,35c-0.8-1-1.3-2.1-1.3-3.5s0.4-2.5,1.3-3.5c0.8-1,2-1.5,3.3-1.5c1.4,0,2.5,0.5,3.3,1.5s1.3,2.1,1.3,3.5
		s-0.4,2.5-1.3,3.5c-0.8,1-2,1.5-3.3,1.5C193.7,36.4,192.6,35.9,191.8,35z M193,29c-0.5,0.7-0.8,1.5-0.8,2.5s0.3,1.8,0.8,2.5
		c0.5,0.7,1.3,1,2.2,1c0.9,0,1.6-0.3,2.2-1c0.5-0.7,0.8-1.5,0.8-2.5s-0.3-1.8-0.8-2.5c-0.5-0.7-1.3-1-2.2-1
		C194.2,28,193.5,28.3,193,29z"/>
	<path class="st0" d="M215.5,29.5v6.7h-1.6v-6.4c0-1.3-0.5-1.9-1.5-1.9c-0.7,0-1.3,0.4-1.8,1.2c-0.5,0.8-0.7,1.8-0.7,3.2v3.9h-1.6
		v-6.4c0-1.3-0.5-1.9-1.5-1.9c-0.7,0-1.3,0.4-1.8,1.2c-0.5,0.8-0.7,1.8-0.7,3.2v3.9h-1.6v-9.6h1.6v1.8c0.6-1.3,1.6-1.9,3-1.9
		c0.7,0,1.2,0.2,1.7,0.5c0.4,0.3,0.8,0.8,0.9,1.5c0.7-1.3,1.7-2,3.1-2c0.9,0,1.5,0.3,2,0.8S215.5,28.6,215.5,29.5z"/>
</g>
</svg>
